<svg width="94" height="94" viewBox="0 0 94 94" fill="none" xmlns="http://www.w3.org/2000/svg">
<path d="M25.5278 59.0331H68.714V62.3552H25.5278V59.0331ZM28.8498 64.0162H65.392V67.3382H28.8498V64.0162ZM70.375 39.101C67.7328 39.098 65.1997 38.047 63.3313 36.1787C61.463 34.3103 60.412 31.7772 60.409 29.1349V27.4739H33.8328V29.1349C33.8298 31.7772 32.7788 34.3103 30.9105 36.1787C29.0421 38.047 26.509 39.098 23.8668 39.101H22.2057V45.7451H23.8668C26.509 45.7481 29.0421 46.799 30.9105 48.6674C32.7788 50.5357 33.8298 53.0689 33.8328 55.7111V57.3721H60.409V55.7111C60.412 53.0689 61.463 50.5357 63.3313 48.6674C65.1997 46.799 67.7328 45.7481 70.375 45.7451H72.0361V39.101H70.375ZM47.1209 52.3891C45.1498 52.3891 43.223 51.8046 41.5841 50.7095C39.9451 49.6144 38.6678 48.0579 37.9135 46.2369C37.1592 44.4158 36.9618 42.412 37.3463 40.4787C37.7309 38.5455 38.6801 36.7697 40.0738 35.376C41.4676 33.9822 43.2434 33.033 45.1766 32.6485C47.1098 32.2639 49.1137 32.4613 50.9348 33.2156C52.7558 33.9699 54.3123 35.2473 55.4074 36.8862C56.5025 38.5251 57.087 40.4519 57.087 42.423C57.0839 45.0653 56.033 47.5984 54.1646 49.4668C52.2963 51.3351 49.7631 52.3861 47.1209 52.3891Z" fill="black"/>
<path d="M30.5108 29.1349V27.4739H22.2057V35.779H23.8668C25.6283 35.7771 27.3171 35.0765 28.5627 33.8309C29.8083 32.5853 30.5089 30.8965 30.5108 29.1349ZM23.8668 49.0671H22.2057V57.3721H30.5108V55.7111C30.5089 53.9496 29.8083 52.2608 28.5627 51.0152C27.3171 49.7696 25.6283 49.069 23.8668 49.0671ZM70.375 35.779H72.0361V27.4739H63.731V29.1349C63.7329 30.8965 64.4335 32.5853 65.6791 33.8309C66.9247 35.0765 68.6135 35.7771 70.375 35.779ZM63.731 55.7111V57.3721H72.0361V49.0671H70.375C68.6135 49.069 66.9247 49.7696 65.6791 51.0152C64.4335 52.2608 63.7329 53.9496 63.731 55.7111Z" fill="black"/>
<path d="M47.1209 49.0674C50.7903 49.0674 53.765 46.0927 53.765 42.4233C53.765 38.7539 50.7903 35.7793 47.1209 35.7793C43.4515 35.7793 40.4769 38.7539 40.4769 42.4233C40.4769 46.0927 43.4515 49.0674 47.1209 49.0674Z" fill="black"/>
<circle cx="47.1213" cy="47.4064" r="44.3344" stroke="black" stroke-width="4.46145"/>
</svg>
