<svg width="94" height="94" viewBox="0 0 94 94" fill="none" xmlns="http://www.w3.org/2000/svg">
<path d="M46.8341 65.7035C41.038 65.7035 34.5011 64.4181 29.3482 62.2712C27.4583 61.4752 25.8395 60.1875 24.5164 59.1711C24.4508 59.1209 24.3724 59.0901 24.2902 59.0821C24.208 59.0741 24.1251 59.0893 24.0511 59.1259C23.977 59.1625 23.9147 59.2192 23.8711 59.2894C23.8275 59.3596 23.8045 59.4406 23.8045 59.5232V60.916C23.8045 64.0239 26.4053 66.8085 31.1275 68.7572C35.3514 70.501 40.9294 71.4609 46.8341 71.4609C52.7388 71.4609 58.3157 70.501 62.5407 68.7572C67.2629 66.8107 69.8637 64.0239 69.8637 60.916V59.5232C69.8637 59.4406 69.8407 59.3596 69.7971 59.2894C69.7535 59.2192 69.6912 59.1625 69.6171 59.1259C69.5431 59.0893 69.4602 59.0741 69.378 59.0821C69.2957 59.0901 69.2174 59.1209 69.1518 59.1711C67.8287 60.1864 66.2099 61.4752 64.3189 62.2712C59.166 64.4181 52.6302 65.7035 46.8341 65.7035ZM69.8637 32.3228C69.774 29.2614 67.1865 26.5211 62.5562 24.5891C58.3201 22.8287 52.7399 21.8588 46.8341 21.8588C40.9283 21.8588 35.3481 22.8287 31.1219 24.5891C26.4961 26.5167 23.9086 29.2515 23.8145 32.3051L23.8045 34.2593C23.8045 34.969 24.3803 36.084 25.4243 36.9974C26.6566 38.0747 28.4857 39.1376 30.7145 40.0676C35.4566 42.0495 41.483 43.2275 46.8341 43.2275C52.1852 43.2275 58.2116 42.0451 62.9537 40.0632C65.1825 39.1332 67.0116 38.0703 68.2439 36.993C69.2879 36.0851 69.8637 34.9701 69.8637 34.2593V32.3228Z" fill="url(#paint0_linear_43_102)"/>
<path d="M64.3188 43.3381C59.1671 45.4894 52.6302 46.7704 46.8341 46.7704C41.0379 46.7704 34.5011 45.4894 29.3482 43.3381C27.4582 42.5465 25.8395 41.2577 24.5164 40.238C24.4505 40.1875 24.3717 40.1566 24.2891 40.1488C24.2064 40.141 24.1232 40.1566 24.049 40.1937C23.9748 40.2309 23.9125 40.2882 23.8693 40.359C23.826 40.4299 23.8036 40.5115 23.8045 40.5945V44.0024C23.8045 44.7121 24.3802 45.6056 25.4243 46.5191C26.6566 47.5975 28.4857 48.6593 30.7145 49.5904C35.4566 51.569 41.483 52.7492 46.8341 52.7492C52.1851 52.7492 58.2116 51.5667 62.9536 49.586C65.1824 48.6548 67.0115 47.593 68.2438 46.5146C69.2879 45.6045 69.8636 44.7121 69.8636 44.0024V40.5945C69.8637 40.5118 69.8406 40.4309 69.7971 40.3606C69.7535 40.2904 69.6911 40.2338 69.6171 40.1972C69.543 40.1606 69.4602 40.1454 69.3779 40.1534C69.2957 40.1614 69.2173 40.1922 69.1517 40.2424C67.8286 41.2577 66.2099 42.5465 64.3188 43.3381Z" fill="url(#paint1_linear_43_102)"/>
<path d="M64.3189 52.8599C59.166 55.009 52.6302 56.2922 46.8341 56.2922C41.038 56.2922 34.5011 55.009 29.3482 52.8599C27.4583 52.0661 25.8395 50.7773 24.5165 49.7598C24.4507 49.7095 24.3721 49.6786 24.2897 49.6707C24.2072 49.6628 24.1242 49.6782 24.0501 49.7151C23.9759 49.752 23.9136 49.8089 23.8702 49.8795C23.8268 49.95 23.8041 50.0313 23.8045 50.1141V53.4135C23.8045 54.1232 24.3803 55.0156 25.4232 55.928C26.6555 57.0064 28.4857 58.0682 30.7145 58.9993C35.4566 60.9779 41.4819 62.1603 46.8341 62.1603C52.1863 62.1603 58.2116 60.9779 62.9537 58.9971C65.1825 58.0659 67.0116 57.0041 68.2439 55.9257C69.2879 55.0123 69.8637 54.1188 69.8637 53.4135V50.1141C69.8637 50.0315 69.8407 49.9505 69.7971 49.8803C69.7535 49.8101 69.6912 49.7534 69.6171 49.7168C69.5431 49.6802 69.4602 49.665 69.378 49.673C69.2957 49.681 69.2174 49.7118 69.1518 49.762C67.8287 50.7773 66.2099 52.0661 64.3189 52.8599Z" fill="url(#paint2_linear_43_102)"/>
<circle cx="47.1063" cy="46.7191" r="44.1686" stroke="#FFC350" stroke-width="4.44476"/>
<defs>
<linearGradient id="paint0_linear_43_102" x1="24.2663" y1="35.8491" x2="67.7438" y2="36.2905" gradientUnits="userSpaceOnUse">
<stop stop-color="#FFC350"/>
<stop offset="0.143235" stop-color="#DBC7A1"/>
<stop offset="0.328933" stop-color="#FFF7E8"/>
<stop offset="0.46555" stop-color="#EABB60"/>
<stop offset="0.712687" stop-color="#FFE3AD"/>
<stop offset="0.943246" stop-color="#E9B654"/>
</linearGradient>
<linearGradient id="paint1_linear_43_102" x1="24.2662" y1="43.7014" x2="67.6789" y2="45.436" gradientUnits="userSpaceOnUse">
<stop stop-color="#FFC350"/>
<stop offset="0.143235" stop-color="#DBC7A1"/>
<stop offset="0.328933" stop-color="#FFF7E8"/>
<stop offset="0.46555" stop-color="#EABB60"/>
<stop offset="0.712687" stop-color="#FFE3AD"/>
<stop offset="0.943246" stop-color="#E9B654"/>
</linearGradient>
<linearGradient id="paint2_linear_43_102" x1="24.2663" y1="53.192" x2="67.6777" y2="54.942" gradientUnits="userSpaceOnUse">
<stop stop-color="#FFC350"/>
<stop offset="0.143235" stop-color="#DBC7A1"/>
<stop offset="0.328933" stop-color="#FFF7E8"/>
<stop offset="0.46555" stop-color="#EABB60"/>
<stop offset="0.712687" stop-color="#FFE3AD"/>
<stop offset="0.943246" stop-color="#E9B654"/>
</linearGradient>
</defs>
</svg>
