<svg width="100" height="100" viewBox="0 0 100 100" fill="none" xmlns="http://www.w3.org/2000/svg">
<path d="M75.0172 58.9771L57.747 58.2427C57.1947 58.1996 54.8838 58.0977 54.8838 55.1435C54.8838 52.2911 57.1791 52.109 57.7757 52.0431L75.0172 51.3099C76.535 51.3255 77.8852 53.0386 77.8852 55.1435C77.8852 57.2484 76.535 58.9615 75.0172 58.9771ZM58.0716 43.2031L70.859 42.2052C72.3744 42.2052 74.0516 44.2034 74.0516 46.264V46.3035C74.0516 48.2586 72.7171 49.852 71.071 49.8723L58.0788 49.6651C54.8838 49.2733 54.8838 47.3362 54.8838 46.5036C54.8838 43.7626 57.4954 43.251 58.0716 43.2031ZM69.0021 76.4677L58.2957 75.3979C55.363 75.2865 54.8838 73.3314 54.8838 72.1058C54.8838 69.9039 56.4903 69.1588 58.0788 69.1588L68.9805 68.7994C70.7224 68.8269 72.1336 70.5364 72.1336 72.6329C72.1336 74.7294 70.7356 76.427 69.0021 76.4677ZM73.1184 67.9021L57.9758 67.1581C56.8509 67.0826 54.8838 66.7987 54.8838 63.999C54.8838 62.5614 55.4049 60.931 57.8788 60.701L73.116 60.2361C74.6925 60.2529 75.9684 61.8522 75.9684 63.9978C75.9684 66.1434 74.6925 67.8829 73.1184 67.9009V67.9021Z" fill="black"/>
<path d="M34.4641 47.4838C34.1866 47.6354 33.8757 47.7153 33.5596 47.7163C33.8739 47.7154 34.1831 47.6363 34.4593 47.4862L34.4641 47.4838ZM39.3267 39.1842C36.8708 43.4382 35.6896 45.7671 35.2751 46.6117C35.6908 45.7647 36.8732 43.4358 39.3267 39.1842Z" fill="black"/>
<path d="M35.1578 46.8584L35.2776 46.6188C35.1042 46.9857 34.8207 47.2893 34.4666 47.4874C34.7443 47.3366 34.9815 47.1208 35.1578 46.8584Z" fill="black"/>
<path d="M56.3285 25.2681C55.1987 23.6748 53.3263 22.7979 51.0501 22.7979C50.6942 22.7978 50.3453 22.8969 50.0426 23.0839C49.7398 23.271 49.4951 23.5386 49.3358 23.8569C48.9764 24.5841 47.5089 26.732 45.9587 28.9974C43.8023 32.1518 41.1248 36.074 39.3422 39.1564L39.3266 39.184C36.8731 43.4356 35.6907 45.7645 35.275 46.6115L35.1552 46.8511C34.9778 47.1124 34.7398 47.327 34.4616 47.4764C34.1855 47.6303 33.8754 47.7126 33.5595 47.716H30.5274C29.195 47.716 27.8757 47.9785 26.6447 48.4883C25.4138 48.9982 24.2953 49.7455 23.3532 50.6877C21.4505 52.5904 20.3816 55.171 20.3816 57.8618V62.4872C20.3814 63.8197 20.6437 65.1391 21.1535 66.3702C21.6634 67.6013 22.4107 68.7199 23.3528 69.6622C24.2949 70.6044 25.4134 71.3518 26.6445 71.8618C27.8755 72.3717 29.1949 72.6342 30.5274 72.6342H36.3724C36.7804 72.6358 37.1792 72.7561 37.52 72.9804C40.2682 74.775 45.4603 76.4678 51.0501 76.4678C51.9426 76.4678 52.7501 76.451 53.4784 76.4223C53.652 76.4161 53.8206 76.3629 53.9662 76.2683C54.1118 76.1738 54.229 76.0414 54.3053 75.8855C54.3816 75.7295 54.4141 75.5557 54.3992 75.3827C54.3844 75.2097 54.3229 75.0439 54.2212 74.9032L54.2092 74.8864C53.1825 73.4021 52.9669 71.7956 52.9669 70.7174C52.9651 69.6958 53.1769 68.685 53.5887 67.75C53.7059 67.4849 53.7665 67.1983 53.7665 66.9084C53.7665 66.6186 53.7059 66.3319 53.5887 66.0668C53.1789 65.1133 52.9675 64.0863 52.9675 63.0485C52.9675 62.0107 53.1789 60.9837 53.5887 60.0302C53.7054 59.766 53.7657 59.4804 53.7657 59.1916C53.7657 58.9028 53.7054 58.6171 53.5887 58.353C53.1809 57.4158 52.9705 56.4046 52.9705 55.3826C52.9705 54.3605 53.1809 53.3494 53.5887 52.4122C53.7113 52.1352 53.7746 51.8357 53.7746 51.5328C53.7746 51.23 53.7113 50.9304 53.5887 50.6535C53.1613 49.6918 52.9491 48.6484 52.9669 47.5962C52.9669 46.6139 53.2065 45.0445 53.9253 43.8597C54.0705 43.6155 54.1583 43.3415 54.182 43.0584C54.2056 42.7753 54.1646 42.4905 54.0619 42.2256C54.0163 42.1058 53.9708 41.9777 53.9265 41.8459C53.783 41.3981 53.7477 40.9227 53.8235 40.4586C54.1829 38.1417 54.9819 36.1111 55.8289 33.9703C56.1979 33.0383 56.58 32.0751 56.9334 31.064C57.669 28.9591 57.4486 26.8471 56.3285 25.2681Z" fill="black"/>
<circle cx="49.7173" cy="49.9888" r="47.3356" stroke="black" stroke-width="4.76346"/>
</svg>
