<svg xmlns="http://www.w3.org/2000/svg" width="1.024em" height="0.753em" viewBox="0 0 1024 753" fill="none">
    <path
        d="M635.637 372.512L511.306 116.097C499.114 90.4572 500.477 63.6528 519.436 54.9111V50.2514H386.715V54.9111C415.828 65.9833 426.67 93.3644 444.952 131.829L603.397 461.045H610.163L641.019 386.871L635.626 372.512H635.637Z"
        fill="currentColor" />
    <path
        d="M730.027 50.2514V54.9111C739.278 63.8063 748.496 80.9755 746.164 100.975L747.984 102.423C750.414 104.372 753.606 105.101 756.645 104.415L761.364 103.348C774.57 80.3429 789.779 63.414 808.586 54.9111V50.2514H730.038H730.027Z"
        fill="currentColor" />
    <path
        d="M435.004 372.512L310.685 116.097C298.493 90.4572 299.855 63.6528 318.813 54.9111V50.2514H186.094V54.9111C215.207 65.9833 226.047 93.3644 244.331 131.829L402.776 461.045H409.541L440.398 386.871L435.004 372.512Z"
        fill="currentColor" />
    <path d="M57.8418 623.318H45.5087L18.9338 570.177H33.8284L51.8939 609.088L71.0044 570.177H84.4493L57.8418 623.318Z"
        fill="currentColor" />
    <path d="M107.145 623.318H94.3092V570.177H107.145V623.318Z" fill="currentColor" />
    <path
        d="M149.758 624.755C143.319 624.755 137.653 623.536 132.74 621.108C127.835 618.68 123.99 615.349 121.2 611.135C118.422 606.922 117.028 602.132 117.028 596.764C117.028 591.396 118.389 586.607 121.124 582.383C123.849 578.158 127.64 574.827 132.478 572.388C137.326 569.96 142.905 568.741 149.234 568.741C153.452 568.741 157.8 569.676 162.278 571.549C166.766 573.423 170.427 575.959 173.293 579.138L165.11 588.491C163.279 586.182 160.969 584.352 158.203 583.014C155.435 581.675 152.362 581 149.006 581C145.246 581 141.913 581.631 138.993 582.884C136.073 584.135 133.774 585.932 132.085 588.272C130.408 590.613 129.569 593.443 129.569 596.754C129.569 600.063 130.408 602.861 132.085 605.203C133.763 607.542 136.062 609.35 138.993 610.602C141.913 611.854 145.257 612.486 149.006 612.486C151.707 612.486 154.508 611.92 157.418 610.799C160.316 609.676 162.865 607.772 165.044 605.092L173.325 614.543C169.686 618.049 165.895 620.629 161.972 622.273C158.038 623.916 153.974 624.744 149.769 624.744L149.758 624.755Z"
        fill="currentColor" />
    <path d="M219.087 623.319H206.262V581.566H183.218V570.19H242.153V581.566H219.076V623.319H219.087Z" fill="currentColor" />
    <path
        d="M280.135 624.755C274.198 624.755 268.793 623.536 263.901 621.108C259.019 618.68 255.107 615.349 252.188 611.135C249.268 606.922 247.807 602.132 247.807 596.764C247.807 591.396 249.268 586.574 252.188 582.361C255.107 578.147 259.019 574.816 263.901 572.388C268.793 569.96 274.198 568.741 280.135 568.741C286.073 568.741 291.488 569.96 296.382 572.388C301.274 574.816 305.184 578.147 308.116 582.361C311.036 586.585 312.506 591.386 312.506 596.764C312.506 602.143 311.047 606.922 308.116 611.135C305.195 615.36 301.284 618.68 296.382 621.108C291.477 623.536 286.063 624.755 280.135 624.755ZM280.135 612.496C283.579 612.496 286.793 611.876 289.778 610.634C292.753 609.394 295.149 607.597 296.958 605.257C298.766 602.916 299.672 600.084 299.672 596.775C299.672 593.465 298.766 590.603 296.958 588.261C295.149 585.922 292.753 584.124 289.778 582.884C286.804 581.642 283.59 581.022 280.135 581.022C276.682 581.022 273.511 581.653 270.526 582.917C267.54 584.179 265.153 585.987 263.346 588.326C261.536 590.668 260.632 593.487 260.632 596.775C260.632 600.063 261.536 602.883 263.346 605.224C265.153 607.564 267.551 609.372 270.526 610.623C273.5 611.876 276.704 612.507 280.135 612.507V612.496Z"
        fill="currentColor" />
    <path
        d="M375.962 623.318H361.263L350.956 606.051H335.212V623.318H322.387V570.177H354.661C358.473 570.177 361.785 570.951 364.586 572.497C367.386 574.043 369.555 576.165 371.079 578.877C372.605 581.577 373.368 584.669 373.368 588.131C373.368 591.789 372.475 595.033 370.699 597.842C368.922 600.652 366.69 602.688 364.009 603.928L375.951 623.318H375.962ZM354.661 594.674C356.382 594.674 357.799 594.108 358.898 592.975C359.999 591.843 360.554 590.232 360.554 588.131C360.554 586.03 359.956 584.396 358.768 583.253C357.58 582.121 356.208 581.555 354.661 581.555H335.223V594.664H354.661V594.674Z"
        fill="currentColor" />
    <path
        d="M449.401 623.318H437.066L410.491 570.177H425.386L443.451 609.088L462.562 570.177H476.017L449.412 623.318H449.401Z"
        fill="currentColor" />
    <path d="M498.69 623.318H485.867V570.177H498.69V623.318Z" fill="currentColor" />
    <path d="M555.999 623.318H508.582V570.177H521.407V611.941H555.999V623.318Z" fill="currentColor" />
    <path d="M613.323 623.318H565.906V570.177H578.729V611.941H613.323V623.318Z" fill="currentColor" />
    <path
        d="M688.078 623.318H674.361L668.738 611.811H641.871L636.27 623.318H622.563L649.138 570.177H661.471L688.078 623.318ZM663.203 600.433L655.315 584.179L647.394 600.433H663.203Z"
        fill="currentColor" />
    <path
        d="M751.513 623.318H736.814L726.507 606.051H710.763V623.318H697.928V570.177H730.201C734.015 570.177 737.327 570.951 740.138 572.497C742.938 574.043 745.106 576.165 746.632 578.877C748.158 581.577 748.919 584.669 748.919 588.131C748.919 591.789 748.026 595.033 746.25 597.842C744.473 600.652 742.241 602.688 739.56 603.928L751.502 623.318H751.513ZM730.212 594.674C731.933 594.674 733.35 594.108 734.451 592.975C735.55 591.843 736.107 590.232 736.107 588.131C736.107 586.03 735.507 584.396 734.319 583.253C733.131 582.121 731.759 581.555 730.212 581.555H710.774V594.664H730.212V594.674Z"
        fill="currentColor" />
    <path
        d="M814.98 623.318H800.282L789.974 606.051H774.23V623.318H761.407V570.177H793.68C797.493 570.177 800.805 570.951 803.605 572.497C806.406 574.043 808.573 576.165 810.099 578.877C811.625 581.577 812.388 584.669 812.388 588.131C812.388 591.789 811.495 595.033 809.718 597.842C807.942 600.652 805.708 602.688 803.028 603.928L814.969 623.318H814.98ZM793.68 594.674C795.401 594.674 796.817 594.108 797.918 592.975C799.019 591.843 799.574 590.232 799.574 588.131C799.574 586.03 798.986 584.396 797.788 583.253C796.6 582.121 795.226 581.555 793.68 581.555H774.241V594.664H793.68V594.674Z"
        fill="currentColor" />
    <path
        d="M872.292 623.318H824.873V570.177H872.292V581.555H837.697V591.071H866.527V602.447H837.697V611.93H872.292V623.307V623.318Z"
        fill="currentColor" />
    <path
        d="M947.699 623.318H933.982L928.359 611.811H901.492L895.891 623.318H882.184L908.759 570.177H921.094L947.699 623.318ZM922.825 600.433L914.936 584.179L907.016 600.433H922.825Z"
        fill="currentColor" />
    <path d="M1004.99 623.318H957.57V570.177H970.406V611.941H1005V623.318H1004.99Z" fill="currentColor" />
    <path
        d="M301.151 669.817C302.753 668.848 304.595 668.358 306.697 668.358C309.095 668.358 311.11 668.989 312.723 670.242C314.335 671.493 315.393 673.258 315.872 675.522H314.117C313.638 673.748 312.745 672.387 311.427 671.428C310.107 670.47 308.494 669.991 306.6 669.991C304.866 669.991 303.353 670.416 302.057 671.255C300.759 672.093 299.757 673.269 299.038 674.771C298.318 676.274 297.969 677.982 297.969 679.91C297.969 681.837 298.329 683.546 299.038 685.048C299.757 686.551 300.759 687.726 302.057 688.565C303.353 689.404 304.866 689.829 306.6 689.829C308.539 689.829 310.163 689.35 311.448 688.402C312.734 687.455 313.616 686.072 314.084 684.254H315.839C315.337 686.54 314.292 688.315 312.712 689.567C311.121 690.819 309.116 691.451 306.697 691.451C304.606 691.451 302.753 690.971 301.151 690.013C299.549 689.055 298.318 687.694 297.458 685.941C296.597 684.188 296.161 682.184 296.161 679.921C296.161 677.657 296.597 675.675 297.458 673.922C298.318 672.169 299.549 670.808 301.151 669.839V669.817Z"
        fill="currentColor" />
    <path
        d="M344.309 689.948C342.696 690.928 340.865 691.418 338.806 691.418C336.747 691.418 334.916 690.928 333.314 689.948C331.712 688.968 330.449 687.596 329.556 685.833C328.662 684.068 328.216 682.087 328.216 679.888C328.216 677.689 328.662 675.697 329.556 673.943C330.449 672.18 331.702 670.808 333.314 669.828C334.927 668.848 336.758 668.358 338.806 668.358C340.854 668.358 342.696 668.848 344.309 669.828C345.922 670.808 347.174 672.18 348.068 673.943C348.961 675.708 349.418 677.689 349.418 679.888C349.418 682.087 348.972 684.068 348.068 685.833C347.174 687.596 345.922 688.968 344.309 689.948ZM334.252 688.532C335.581 689.371 337.096 689.796 338.806 689.796C340.516 689.796 342.042 689.371 343.382 688.532C344.723 687.694 345.768 686.518 346.509 685.016C347.25 683.513 347.632 681.805 347.632 679.877C347.632 677.95 347.261 676.241 346.509 674.739C345.768 673.236 344.723 672.072 343.382 671.222C342.042 670.383 340.516 669.958 338.806 669.958C337.096 669.958 335.581 670.383 334.252 671.222C332.922 672.061 331.888 673.236 331.136 674.739C330.394 676.241 330.024 677.95 330.024 679.877C330.024 681.805 330.394 683.513 331.136 685.016C331.877 686.518 332.922 687.694 334.252 688.532Z"
        fill="currentColor" />
    <path
        d="M369.022 668.555H371.092L379.84 691.232H377.956L375.232 684.298H364.793L362.069 691.232H360.25L369.011 668.555H369.022ZM374.731 682.687L370.034 670.47L365.339 682.687H374.742H374.731Z"
        fill="currentColor" />
    <path
        d="M395.66 669.817C397.262 668.848 399.104 668.358 401.206 668.358C403.604 668.358 405.619 668.989 407.232 670.242C408.855 671.493 409.9 673.258 410.381 675.522H408.626C408.147 673.748 407.254 672.387 405.936 671.428C404.616 670.47 403.004 669.991 401.109 669.991C399.375 669.991 397.862 670.416 396.566 671.255C395.268 672.093 394.266 673.269 393.547 674.771C392.827 676.274 392.478 677.982 392.478 679.91C392.478 681.837 392.838 683.546 393.547 685.048C394.255 686.551 395.268 687.726 396.566 688.565C397.862 689.404 399.375 689.829 401.109 689.829C403.049 689.829 404.672 689.35 405.957 688.402C407.243 687.455 408.125 686.072 408.604 684.254H410.359C409.857 686.54 408.823 688.315 407.232 689.567C405.641 690.819 403.636 691.451 401.217 691.451C399.126 691.451 397.273 690.971 395.671 690.013C394.069 689.055 392.838 687.694 391.978 685.941C391.106 684.188 390.681 682.184 390.681 679.921C390.681 677.657 391.117 675.675 391.978 673.922C392.838 672.169 394.069 670.808 395.671 669.839L395.66 669.817Z"
        fill="currentColor" />
    <path
        d="M425.699 668.522V678.854H438.829V668.522H440.583V691.232H438.829V680.476H425.699V691.232H423.945V668.522H425.699Z"
        fill="currentColor" />
    <path d="M486.933 668.555V670.177H475.199V679.148H484.994V680.77H475.199V691.232H473.445V668.555H486.933Z"
        fill="currentColor" />
    <path d="M501.488 668.555V691.232H499.735V668.555H501.488Z" fill="currentColor" />
    <path
        d="M515.873 668.555H517.529L530.952 688.031V668.555H532.675V691.232H531.019L517.594 671.723V691.232H515.873V668.555Z"
        fill="currentColor" />
    <path
        d="M554.029 668.555H556.11L564.859 691.232H562.974L560.25 684.298H549.811L547.089 691.232H545.268L554.018 668.555H554.029ZM559.738 682.687L555.041 670.47L550.335 682.687H559.738Z"
        fill="currentColor" />
    <path
        d="M577.453 668.555H579.109L592.532 688.031V668.555H594.255V691.232H592.599L579.174 671.723V691.232H577.453V668.555Z"
        fill="currentColor" />
    <path
        d="M612.81 669.817C614.412 668.848 616.265 668.358 618.356 668.358C620.754 668.358 622.769 668.989 624.382 670.242C626.005 671.493 627.05 673.258 627.531 675.522H625.776C625.308 673.748 624.404 672.387 623.086 671.428C621.766 670.47 620.153 669.991 618.259 669.991C616.525 669.991 615.012 670.416 613.714 671.255C612.418 672.093 611.416 673.269 610.697 674.771C609.977 676.274 609.628 677.982 609.628 679.91C609.628 681.837 609.988 683.546 610.697 685.048C611.405 686.551 612.418 687.726 613.714 688.565C615.012 689.404 616.525 689.829 618.259 689.829C620.197 689.829 621.82 689.35 623.107 688.402C624.393 687.455 625.275 686.072 625.754 684.254H627.508C627.007 686.54 625.962 688.315 624.382 689.567C622.791 690.819 620.786 691.451 618.367 691.451C616.276 691.451 614.423 690.971 612.821 690.013C611.219 689.055 609.988 687.694 609.128 685.941C608.256 684.188 607.831 682.184 607.831 679.921C607.831 677.657 608.256 675.675 609.128 673.922C609.988 672.169 611.219 670.808 612.821 669.839L612.81 669.817Z"
        fill="currentColor" />
    <path d="M642.86 668.555V691.232H641.106V668.555H642.86Z" fill="currentColor" />
    <path
        d="M671.233 668.555V670.177H659.009V678.865H669.25V680.486H659.009V689.621H671.658V691.243H657.266V668.566H671.244L671.233 668.555Z"
        fill="currentColor" />
    <path
        d="M698.266 670.351C699.562 671.548 700.216 673.149 700.216 675.164C700.216 676.829 699.735 678.223 698.766 679.344C697.808 680.465 696.51 681.172 694.898 681.456L700.281 691.243H698.309L693.155 681.783H686.444V691.243H684.689V668.566H693.09C695.247 668.566 696.98 669.164 698.276 670.361L698.266 670.351ZM692.949 680.149C694.616 680.149 695.944 679.691 696.935 678.789C697.928 677.885 698.428 676.677 698.428 675.164C698.428 673.65 697.938 672.441 696.957 671.537C695.977 670.634 694.648 670.177 692.992 670.177H686.444V680.159H692.96L692.949 680.149Z"
        fill="currentColor" />
    <path
        d="M728.641 689.948C727.028 690.928 725.197 691.418 723.149 691.418C721.101 691.418 719.26 690.928 717.647 689.948C716.035 688.968 714.782 687.596 713.887 685.833C712.994 684.068 712.537 682.087 712.537 679.888C712.537 677.689 712.983 675.697 713.887 673.943C714.782 672.18 716.035 670.808 717.647 669.828C719.26 668.848 721.09 668.358 723.149 668.358C725.208 668.358 727.039 668.848 728.641 669.828C730.253 670.808 731.506 672.18 732.399 673.943C733.293 675.708 733.741 677.689 733.741 679.888C733.741 682.087 733.293 684.068 732.399 685.833C731.506 687.596 730.253 688.968 728.641 689.948ZM718.595 688.532C719.924 689.371 721.439 689.796 723.149 689.796C724.861 689.796 726.374 689.371 727.726 688.532C729.066 687.694 730.112 686.518 730.852 685.016C731.593 683.513 731.974 681.805 731.974 679.877C731.974 677.95 731.604 676.241 730.852 674.739C730.112 673.236 729.066 672.072 727.726 671.222C726.385 670.383 724.861 669.958 723.149 669.958C721.439 669.958 719.924 670.383 718.595 671.222C717.266 672.061 716.23 673.236 715.478 674.739C714.739 676.241 714.357 677.95 714.357 679.877C714.357 681.805 714.728 683.513 715.478 685.016C716.219 686.518 717.255 687.694 718.595 688.532Z"
        fill="currentColor" />
</svg>