<svg width="242" height="48" viewBox="0 0 242 48" fill="none" xmlns="http://www.w3.org/2000/svg">
    <path
        d="M52.1282 37.3687L37.711 7.63534C36.2972 4.66219 36.4553 1.554 38.6537 0.540332V0H23.2636V0.540332C26.6395 1.82424 27.8967 4.99931 30.0167 9.45958L48.3896 47.6348H49.1742L52.7522 39.0338L52.1269 37.3687H52.1282Z"
        fill="currentColor" />
    <path
        d="M63.0734 0V0.540332C64.1461 1.5718 65.215 3.56271 64.9446 5.88176L65.1557 6.04969C65.4374 6.2757 65.8076 6.36021 66.16 6.28074L66.7072 6.15703C68.2385 3.48936 70.0022 1.52631 72.1829 0.540332V0H63.0747H63.0734Z"
        fill="currentColor" />
    <path
        d="M28.8631 37.3687L14.4474 7.63534C13.0336 4.66219 13.1915 1.554 15.3899 0.540332V0H0V0.540332C3.3759 1.82424 4.63288 4.99931 6.75306 9.45958L25.126 47.6348H25.9105L29.4886 39.0338L28.8631 37.3687Z"
        fill="currentColor" />
    <path d="M90.2293 21.8694H88.2531L83.9948 13.3543H86.3814L89.2762 19.5893L92.3384 13.3543H94.4928L90.2293 21.8694Z"
        fill="currentColor" />
    <path d="M98.1294 21.8694H96.0727V13.3543H98.1294V21.8694Z" fill="currentColor" />
    <path
        d="M104.958 22.0997C103.926 22.0997 103.018 21.9044 102.231 21.5153C101.445 21.1262 100.829 20.5926 100.382 19.9172C99.9364 19.2422 99.7131 18.4747 99.7131 17.6145C99.7131 16.7544 99.9312 15.9869 100.369 15.3101C100.806 14.6331 101.414 14.0994 102.189 13.7086C102.966 13.3195 103.86 13.1242 104.874 13.1242C105.55 13.1242 106.246 13.274 106.964 13.5741C107.683 13.8743 108.27 14.2807 108.729 14.7901L107.418 16.2888C107.124 15.9188 106.754 15.6256 106.311 15.4112C105.867 15.1966 105.375 15.0885 104.837 15.0885C104.235 15.0885 103.701 15.1896 103.233 15.3904C102.765 15.5909 102.396 15.8788 102.126 16.2537C101.857 16.6289 101.723 17.0823 101.723 17.6128C101.723 18.143 101.857 18.5915 102.126 18.9666C102.395 19.3416 102.763 19.6313 103.233 19.8318C103.701 20.0325 104.236 20.1337 104.837 20.1337C105.27 20.1337 105.719 20.043 106.185 19.8633C106.649 19.6835 107.058 19.3783 107.407 18.949L108.734 20.4634C108.151 21.0251 107.543 21.4385 106.915 21.7019C106.285 21.9653 105.633 22.098 104.959 22.098L104.958 22.0997Z"
        fill="currentColor" />
    <path d="M116.067 21.8696H114.012V15.1792H110.319V13.3562H119.763V15.1792H116.065V21.8696H116.067Z" fill="currentColor" />
    <path
        d="M125.849 22.0997C124.898 22.0997 124.032 21.9044 123.248 21.5153C122.466 21.1262 121.839 20.5926 121.371 19.9172C120.903 19.2422 120.669 18.4747 120.669 17.6145C120.669 16.7544 120.903 15.9817 121.371 15.3066C121.839 14.6313 122.466 14.0976 123.248 13.7086C124.032 13.3195 124.898 13.1242 125.849 13.1242C126.801 13.1242 127.668 13.3195 128.452 13.7086C129.236 14.0976 129.863 14.6313 130.333 15.3066C130.801 15.9834 131.036 16.7526 131.036 17.6145C131.036 18.4764 130.802 19.2422 130.333 19.9172C129.865 20.5943 129.238 21.1262 128.452 21.5153C127.667 21.9044 126.799 22.0997 125.849 22.0997ZM125.849 20.1354C126.401 20.1354 126.916 20.036 127.394 19.837C127.871 19.6382 128.255 19.3503 128.545 18.9753C128.835 18.6002 128.98 18.1465 128.98 17.6163C128.98 17.0858 128.835 16.6272 128.545 16.252C128.255 15.8771 127.871 15.5891 127.394 15.3904C126.918 15.1913 126.403 15.092 125.849 15.092C125.296 15.092 124.788 15.1931 124.309 15.3956C123.831 15.5978 123.448 15.8875 123.159 16.2624C122.869 16.6376 122.724 17.0893 122.724 17.6163C122.724 18.143 122.869 18.595 123.159 18.9701C123.448 19.3451 123.833 19.6348 124.309 19.8353C124.786 20.036 125.299 20.1371 125.849 20.1371V20.1354Z"
        fill="currentColor" />
    <path
        d="M141.204 21.8694H138.849L137.197 19.1026H134.675V21.8694H132.62V13.3543H137.791C138.402 13.3543 138.933 13.4783 139.381 13.726C139.83 13.9737 140.178 14.3138 140.422 14.7484C140.666 15.1809 140.789 15.6764 140.789 16.2312C140.789 16.8173 140.645 17.337 140.361 17.7873C140.076 18.2375 139.718 18.5637 139.289 18.7625L141.203 21.8694H141.204ZM137.791 17.2797C138.067 17.2797 138.294 17.189 138.47 17.0073C138.646 16.826 138.735 16.5678 138.735 16.2312C138.735 15.8945 138.639 15.6326 138.449 15.4495C138.259 15.2681 138.039 15.1775 137.791 15.1775H134.676V17.2779H137.791V17.2797Z"
        fill="currentColor" />
    <path
        d="M152.972 21.8694H150.995L146.737 13.3543H149.124L152.019 19.5893L155.081 13.3543H157.237L152.974 21.8694H152.972Z"
        fill="currentColor" />
    <path d="M160.87 21.8694H158.815V13.3543H160.87V21.8694Z" fill="currentColor" />
    <path d="M170.053 21.8694H162.455V13.3543H164.51V20.0465H170.053V21.8694Z" fill="currentColor" />
    <path d="M179.239 21.8694H171.641V13.3543H173.695V20.0465H179.239V21.8694Z" fill="currentColor" />
    <path
        d="M191.217 21.8694H189.019L188.118 20.0256H183.813L182.915 21.8694H180.719L184.977 13.3543H186.954L191.217 21.8694ZM187.231 18.2024L185.967 15.5978L184.698 18.2024H187.231Z"
        fill="currentColor" />
    <path
        d="M201.382 21.8694H199.026L197.375 19.1026H194.852V21.8694H192.795V13.3543H197.967C198.578 13.3543 199.109 13.4783 199.559 13.726C200.008 13.9737 200.355 14.3138 200.6 14.7484C200.844 15.1809 200.966 15.6764 200.966 16.2312C200.966 16.8173 200.823 17.337 200.539 17.7873C200.254 18.2375 199.896 18.5637 199.466 18.7625L201.38 21.8694H201.382ZM197.968 17.2797C198.244 17.2797 198.471 17.189 198.648 17.0073C198.824 16.826 198.913 16.5678 198.913 16.2312C198.913 15.8945 198.817 15.6326 198.627 15.4495C198.436 15.2681 198.216 15.1775 197.968 15.1775H194.854V17.2779H197.968V17.2797Z"
        fill="currentColor" />
    <path
        d="M211.552 21.8694H209.196L207.545 19.1026H205.022V21.8694H202.967V13.3543H208.139C208.75 13.3543 209.28 13.4783 209.729 13.726C210.178 13.9737 210.525 14.3138 210.769 14.7484C211.014 15.1809 211.136 15.6764 211.136 16.2312C211.136 16.8173 210.993 17.337 210.708 17.7873C210.424 18.2375 210.066 18.5637 209.637 18.7625L211.55 21.8694H211.552ZM208.139 17.2797C208.414 17.2797 208.641 17.189 208.818 17.0073C208.994 16.826 209.083 16.5678 209.083 16.2312C209.083 15.8945 208.989 15.6326 208.797 15.4495C208.606 15.2681 208.386 15.1775 208.139 15.1775H205.024V17.2779H208.139V17.2797Z"
        fill="currentColor" />
    <path
        d="M220.735 21.8694H213.137V13.3543H220.735V15.1775H215.192V16.7022H219.811V18.5252H215.192V20.0447H220.735V21.8677V21.8694Z"
        fill="currentColor" />
    <path
        d="M232.818 21.8694H230.62L229.719 20.0256H225.414L224.517 21.8694H222.32L226.579 13.3543H228.555L232.818 21.8694ZM228.833 18.2024L227.568 15.5978L226.299 18.2024H228.833Z"
        fill="currentColor" />
    <path d="M241.998 21.8694H234.4V13.3543H236.457V20.0465H242V21.8694H241.998Z" fill="currentColor" />
    <path
        d="M85.1919 28.5164C85.5762 28.2839 86.0182 28.1663 86.5227 28.1663C87.0979 28.1663 87.5815 28.3177 87.9685 28.6183C88.3554 28.9186 88.6091 29.342 88.7241 29.8851H88.3029C88.188 29.4595 87.9737 29.1329 87.6574 28.903C87.3408 28.673 86.9539 28.5581 86.4993 28.5581C86.0833 28.5581 85.7202 28.66 85.4092 28.8613C85.0978 29.0626 84.8575 29.3446 84.6848 29.7051C84.5122 30.0656 84.4285 30.4756 84.4285 30.938C84.4285 31.4005 84.5148 31.8105 84.6848 32.171C84.8575 32.5315 85.0978 32.8135 85.4092 33.0148C85.7202 33.216 86.0833 33.318 86.4993 33.318C86.9647 33.318 87.3542 33.203 87.6626 32.9757C87.9711 32.7484 88.1828 32.4165 88.2951 31.9805H88.7163C88.5957 32.5289 88.345 32.9549 87.9659 33.2551C87.5841 33.5557 87.1031 33.7071 86.5227 33.7071C86.0208 33.7071 85.5762 33.5922 85.1919 33.3622C84.8076 33.1323 84.5122 32.8057 84.3057 32.3853C84.0992 31.9645 83.9947 31.4838 83.9947 30.9406C83.9947 30.3975 84.0992 29.922 84.3057 29.5012C84.5122 29.0808 84.8076 28.7542 85.1919 28.5216V28.5164Z"
        fill="currentColor" />
    <path
        d="M95.5474 33.3466C95.1605 33.5818 94.7211 33.6993 94.227 33.6993C93.7329 33.6993 93.2936 33.5818 92.9092 33.3466C92.5249 33.1115 92.2217 32.7822 92.0074 32.3592C91.7931 31.9359 91.686 31.4604 91.686 30.9328C91.686 30.4053 91.7931 29.9272 92.0074 29.5064C92.2217 29.0834 92.5223 28.7541 92.9092 28.519C93.2962 28.2839 93.7355 28.1663 94.227 28.1663C94.7185 28.1663 95.1605 28.2839 95.5474 28.519C95.9343 28.7541 96.2349 29.0834 96.4492 29.5064C96.6635 29.9298 96.7733 30.4053 96.7733 30.9328C96.7733 31.4604 96.6661 31.9359 96.4492 32.3592C96.2349 32.7822 95.9343 33.1115 95.5474 33.3466ZM93.1343 33.007C93.4532 33.2082 93.8166 33.3102 94.227 33.3102C94.6374 33.3102 95.0035 33.2082 95.3249 33.007C95.6467 32.8057 95.8975 32.5237 96.0753 32.1632C96.2532 31.8027 96.3447 31.3927 96.3447 30.9302C96.3447 30.4678 96.2558 30.0578 96.0753 29.6973C95.8975 29.3368 95.6467 29.0574 95.3249 28.8535C95.0035 28.6522 94.6374 28.5503 94.227 28.5503C93.8166 28.5503 93.4532 28.6522 93.1343 28.8535C92.8151 29.0548 92.567 29.3368 92.3865 29.6973C92.2087 30.0578 92.1198 30.4678 92.1198 30.9302C92.1198 31.3927 92.2087 31.8027 92.3865 32.1632C92.5644 32.5237 92.8151 32.8057 93.1343 33.007Z"
        fill="currentColor" />
    <path
        d="M101.477 28.2135H101.974L104.073 33.6546H103.621L102.967 31.9908H100.462L99.8087 33.6546H99.3723L101.474 28.2135H101.477ZM102.847 31.6043L101.72 28.673L100.593 31.6043H102.849H102.847Z"
        fill="currentColor" />
    <path
        d="M107.869 28.5164C108.253 28.2839 108.695 28.1663 109.199 28.1663C109.775 28.1663 110.258 28.3177 110.645 28.6183C111.035 28.9186 111.285 29.342 111.401 29.8851H110.98C110.865 29.4595 110.65 29.1329 110.334 28.903C110.018 28.673 109.631 28.5581 109.176 28.5581C108.76 28.5581 108.397 28.66 108.086 28.8613C107.775 29.0626 107.534 29.3446 107.362 29.7051C107.189 30.0656 107.105 30.4756 107.105 30.938C107.105 31.4005 107.192 31.8105 107.362 32.171C107.532 32.5315 107.775 32.8135 108.086 33.0148C108.397 33.216 108.76 33.318 109.176 33.318C109.641 33.318 110.031 33.203 110.339 32.9757C110.648 32.7484 110.859 32.4165 110.974 31.9805H111.396C111.275 32.5289 111.027 32.9549 110.645 33.2551C110.263 33.5557 109.782 33.7071 109.202 33.7071C108.7 33.7071 108.256 33.5922 107.871 33.3622C107.487 33.1323 107.192 32.8057 106.985 32.3853C106.776 31.9645 106.674 31.4838 106.674 30.9406C106.674 30.3975 106.779 29.922 106.985 29.5012C107.192 29.0808 107.487 28.7542 107.871 28.5216L107.869 28.5164Z"
        fill="currentColor" />
    <path
        d="M115.076 28.2057V30.6846H118.227V28.2057H118.647V33.6546H118.227V31.0737H115.076V33.6546H114.655V28.2057H115.076Z"
        fill="currentColor" />
    <path d="M129.769 28.2135V28.6027H126.953V30.7553H129.303V31.1444H126.953V33.6546H126.532V28.2135H129.769Z"
        fill="currentColor" />
    <path d="M133.261 28.2135V33.6546H132.841V28.2135H133.261Z" fill="currentColor" />
    <path
        d="M136.713 28.2135H137.11L140.331 32.8867V28.2135H140.744V33.6546H140.347L137.126 28.9736V33.6546H136.713V28.2135Z"
        fill="currentColor" />
    <path
        d="M145.868 28.2135H146.367L148.466 33.6546H148.014L147.36 31.9908H144.856L144.203 33.6546H143.766L145.865 28.2135H145.868ZM147.238 31.6043L146.111 28.673L144.982 31.6043H147.238Z"
        fill="currentColor" />
    <path
        d="M151.488 28.2135H151.886L155.106 32.8867V28.2135H155.52V33.6546H155.122L151.901 28.9736V33.6546H151.488V28.2135Z"
        fill="currentColor" />
    <path
        d="M159.972 28.5164C160.356 28.2839 160.801 28.1663 161.303 28.1663C161.878 28.1663 162.361 28.3177 162.748 28.6183C163.138 28.9186 163.389 29.342 163.504 29.8851H163.083C162.97 29.4595 162.754 29.1329 162.437 28.903C162.121 28.673 161.734 28.5581 161.279 28.5581C160.863 28.5581 160.5 28.66 160.189 28.8613C159.878 29.0626 159.637 29.3446 159.465 29.7051C159.292 30.0656 159.208 30.4756 159.208 30.938C159.208 31.4005 159.295 31.8105 159.465 32.171C159.635 32.5315 159.878 32.8135 160.189 33.0148C160.5 33.216 160.863 33.318 161.279 33.318C161.744 33.318 162.134 33.203 162.443 32.9757C162.751 32.7484 162.963 32.4165 163.078 31.9805H163.498C163.378 32.5289 163.127 32.9549 162.748 33.2551C162.367 33.5557 161.886 33.7071 161.305 33.7071C160.803 33.7071 160.359 33.5922 159.974 33.3622C159.59 33.1323 159.295 32.8057 159.088 32.3853C158.879 31.9645 158.777 31.4838 158.777 30.9406C158.777 30.3975 158.879 29.922 159.088 29.5012C159.295 29.0808 159.59 28.7542 159.974 28.5216L159.972 28.5164Z"
        fill="currentColor" />
    <path d="M167.182 28.2135V33.6546H166.761V28.2135H167.182Z" fill="currentColor" />
    <path
        d="M173.99 28.2135V28.6027H171.057V30.6872H173.514V31.0764H171.057V33.2681H174.092V33.6572H170.639V28.2161H173.992L173.99 28.2135Z"
        fill="currentColor" />
    <path
        d="M180.476 28.6443C180.787 28.9316 180.944 29.3159 180.944 29.7992C180.944 30.1987 180.829 30.5332 180.596 30.8022C180.366 31.0712 180.055 31.2408 179.668 31.3089L180.96 33.6572H180.487L179.25 31.3874H177.64V33.6572H177.219V28.2161H179.234C179.752 28.2161 180.168 28.3597 180.479 28.6469L180.476 28.6443ZM179.2 30.9953C179.6 30.9953 179.919 30.8855 180.157 30.669C180.395 30.4521 180.515 30.1623 180.515 29.7992C180.515 29.4361 180.398 29.1459 180.162 28.929C179.927 28.7124 179.608 28.6027 179.211 28.6027H177.64V30.9979H179.203L179.2 30.9953Z"
        fill="currentColor" />
    <path
        d="M187.764 33.3466C187.378 33.5818 186.938 33.6993 186.447 33.6993C185.955 33.6993 185.514 33.5818 185.127 33.3466C184.74 33.1115 184.439 32.7822 184.224 32.3592C184.01 31.9359 183.9 31.4604 183.9 30.9328C183.9 30.4053 184.008 29.9272 184.224 29.5064C184.439 29.0834 184.74 28.7541 185.127 28.519C185.514 28.2839 185.953 28.1663 186.447 28.1663C186.941 28.1663 187.38 28.2839 187.764 28.519C188.151 28.7541 188.452 29.0834 188.666 29.5064C188.881 29.9298 188.988 30.4053 188.988 30.9328C188.988 31.4604 188.881 31.9359 188.666 32.3592C188.452 32.7822 188.151 33.1115 187.764 33.3466ZM185.354 33.007C185.673 33.2082 186.036 33.3102 186.447 33.3102C186.857 33.3102 187.221 33.2082 187.545 33.007C187.866 32.8057 188.118 32.5237 188.295 32.1632C188.473 31.8027 188.564 31.3927 188.564 30.9302C188.564 30.4678 188.475 30.0578 188.295 29.6973C188.118 29.3368 187.866 29.0574 187.545 28.8535C187.223 28.6522 186.857 28.5503 186.447 28.5503C186.036 28.5503 185.673 28.6522 185.354 28.8535C185.035 29.0548 184.787 29.3368 184.606 29.6973C184.429 30.0578 184.337 30.4678 184.337 30.9302C184.337 31.3927 184.426 31.8027 184.606 32.1632C184.784 32.5237 185.033 32.8057 185.354 33.007Z"
        fill="currentColor" />
</svg>