<svg width="0.836em" height="0.614em" viewBox="0 0 836 614" fill="none" xmlns="http://www.w3.org/2000/svg">
    <path
        d="M497.732 303.836L417.547 138.466C409.684 121.93 410.563 104.643 422.79 99.0052V96H337.194V99.0052C355.97 106.146 362.962 123.805 374.753 148.612L476.939 360.934H481.303L501.203 313.097L497.725 303.836H497.732Z"
        fill="currentColor" />
    <path
        d="M558.607 96V99.0052C564.573 104.742 570.518 115.815 569.014 128.713L570.188 129.647C571.755 130.904 573.814 131.374 575.774 130.932L578.817 130.244C587.334 115.407 597.143 104.489 609.272 99.0052V96H558.614H558.607Z"
        fill="currentColor" />
    <path
        d="M368.337 303.836L288.16 138.466C280.297 121.93 281.175 104.643 293.402 99.0052V96H207.807V99.0052C226.583 106.146 233.574 123.805 245.366 148.612L347.552 360.934H351.915L371.816 313.097L368.337 303.836Z"
        fill="currentColor" />
    <path d="M125.093 465.589H117.139L100 431.317H109.606L121.257 456.412L133.582 431.317H142.253L125.093 465.589Z"
        fill="currentColor" />
    <path d="M156.89 465.589H148.612V431.317H156.89V465.589Z" fill="currentColor" />
    <path
        d="M184.373 466.516C180.22 466.516 176.566 465.73 173.397 464.164C170.234 462.598 167.754 460.45 165.955 457.732C164.163 455.015 163.264 451.926 163.264 448.464C163.264 445.002 164.142 441.913 165.906 439.189C167.663 436.464 170.108 434.316 173.228 432.743C176.355 431.177 179.953 430.391 184.035 430.391C186.755 430.391 189.559 430.994 192.447 432.202C195.342 433.41 197.703 435.046 199.551 437.096L194.274 443.128C193.093 441.639 191.603 440.459 189.819 439.596C188.034 438.732 186.052 438.297 183.888 438.297C181.463 438.297 179.313 438.704 177.43 439.512C175.547 440.319 174.064 441.478 172.975 442.987C171.893 444.497 171.352 446.322 171.352 448.457C171.352 450.591 171.893 452.396 172.975 453.906C174.057 455.415 175.54 456.581 177.43 457.388C179.313 458.196 181.47 458.603 183.888 458.603C185.63 458.603 187.436 458.238 189.313 457.515C191.182 456.791 192.826 455.563 194.231 453.835L199.572 459.93C197.225 462.191 194.78 463.855 192.25 464.915C189.713 465.975 187.092 466.509 184.38 466.509L184.373 466.516Z"
        fill="currentColor" />
    <path d="M229.085 465.59H220.814V438.662H205.952V431.325H243.961V438.662H229.078V465.59H229.085Z"
        fill="currentColor" />
    <path
        d="M268.457 466.516C264.628 466.516 261.142 465.73 257.987 464.164C254.839 462.598 252.316 460.45 250.433 457.732C248.55 455.015 247.608 451.926 247.608 448.464C247.608 445.002 248.55 441.892 250.433 439.175C252.316 436.457 254.839 434.309 257.987 432.743C261.142 431.177 264.628 430.391 268.457 430.391C272.287 430.391 275.779 431.177 278.935 432.743C282.09 434.309 284.612 436.457 286.503 439.175C288.386 441.899 289.334 444.995 289.334 448.464C289.334 451.933 288.393 455.015 286.503 457.732C284.619 460.457 282.097 462.598 278.935 464.164C275.772 465.73 272.28 466.516 268.457 466.516ZM268.457 458.61C270.678 458.61 272.751 458.21 274.676 457.409C276.595 456.609 278.14 455.45 279.307 453.941C280.473 452.431 281.057 450.605 281.057 448.471C281.057 446.336 280.473 444.49 279.307 442.98C278.14 441.471 276.595 440.312 274.676 439.512C272.758 438.711 270.685 438.311 268.457 438.311C266.23 438.311 264.185 438.718 262.26 439.533C260.334 440.347 258.795 441.513 257.629 443.022C256.462 444.532 255.879 446.35 255.879 448.471C255.879 450.591 256.462 452.41 257.629 453.92C258.795 455.429 260.341 456.595 262.26 457.402C264.178 458.21 266.244 458.617 268.457 458.617V458.61Z"
        fill="currentColor" />
    <path
        d="M330.259 465.589H320.779L314.132 454.453H303.978V465.589H295.707V431.317H316.521C318.98 431.317 321.116 431.816 322.922 432.813C324.728 433.81 326.127 435.179 327.11 436.928C328.094 438.669 328.586 440.663 328.586 442.896C328.586 445.255 328.01 447.347 326.865 449.159C325.719 450.971 324.279 452.284 322.55 453.084L330.252 465.589H330.259ZM316.521 447.116C317.631 447.116 318.545 446.751 319.254 446.02C319.964 445.29 320.322 444.251 320.322 442.896C320.322 441.541 319.936 440.487 319.17 439.75C318.404 439.02 317.519 438.655 316.521 438.655H303.985V447.109H316.521V447.116Z"
        fill="currentColor" />
    <path
        d="M377.622 465.589H369.667L352.528 431.317H362.134L373.785 456.412L386.11 431.317H394.788L377.629 465.589H377.622Z"
        fill="currentColor" />
    <path d="M409.41 465.589H401.14V431.317H409.41V465.589Z" fill="currentColor" />
    <path d="M446.371 465.589H415.79V431.317H424.061V458.252H446.371V465.589Z" fill="currentColor" />
    <path d="M483.341 465.589H452.76V431.317H461.03V458.252H483.341V465.589Z" fill="currentColor" />
    <path
        d="M531.553 465.589H522.706L519.08 458.168H501.752L498.14 465.589H489.3L506.439 431.317H514.393L531.553 465.589ZM515.51 450.83L510.423 440.347L505.314 450.83H515.51Z"
        fill="currentColor" />
    <path
        d="M572.464 465.589H562.984L556.337 454.453H546.183V465.589H537.905V431.317H558.719C561.179 431.317 563.315 431.816 565.128 432.813C566.934 433.81 568.332 435.179 569.316 436.928C570.3 438.669 570.791 440.663 570.791 442.896C570.791 445.255 570.215 447.347 569.07 449.159C567.924 450.971 566.484 452.284 564.755 453.084L572.457 465.589H572.464ZM558.726 447.116C559.836 447.116 560.75 446.751 561.46 446.02C562.169 445.29 562.528 444.251 562.528 442.896C562.528 441.541 562.141 440.487 561.375 439.75C560.609 439.02 559.724 438.655 558.726 438.655H546.19V447.109H558.726V447.116Z"
        fill="currentColor" />
    <path
        d="M613.396 465.589H603.917L597.269 454.453H587.115V465.589H578.845V431.317H599.659C602.118 431.317 604.254 431.816 606.06 432.813C607.866 433.81 609.264 435.179 610.248 436.928C611.232 438.669 611.724 440.663 611.724 442.896C611.724 445.255 611.148 447.347 610.002 449.159C608.857 450.971 607.416 452.284 605.688 453.084L613.389 465.589H613.396ZM599.659 447.116C600.769 447.116 601.682 446.751 602.392 446.02C603.102 445.29 603.46 444.251 603.46 442.896C603.46 441.541 603.081 440.487 602.308 439.75C601.542 439.02 600.656 438.655 599.659 438.655H587.122V447.109H599.659V447.116Z"
        fill="currentColor" />
    <path
        d="M650.358 465.589H619.776V431.317H650.358V438.655H628.047V444.792H646.64V452.129H628.047V458.245H650.358V465.582V465.589Z"
        fill="currentColor" />
    <path
        d="M698.991 465.589H690.144L686.518 458.168H669.19L665.578 465.589H656.738L673.877 431.317H681.832L698.991 465.589ZM682.949 450.83L677.861 440.347L672.753 450.83H682.949Z"
        fill="currentColor" />
    <path d="M735.939 465.589H705.357V431.317H713.635V458.252H735.946V465.589H735.939Z" fill="currentColor" />
    <path
        d="M282.011 495.578C283.044 494.953 284.232 494.637 285.588 494.637C287.134 494.637 288.434 495.044 289.474 495.852C290.514 496.659 291.196 497.797 291.505 499.257H290.373C290.064 498.113 289.488 497.235 288.638 496.617C287.787 495.999 286.747 495.69 285.525 495.69C284.407 495.69 283.431 495.964 282.595 496.505C281.758 497.046 281.112 497.804 280.648 498.773C280.184 499.742 279.959 500.844 279.959 502.087C279.959 503.33 280.191 504.432 280.648 505.401C281.112 506.37 281.758 507.128 282.595 507.669C283.431 508.21 284.407 508.484 285.525 508.484C286.776 508.484 287.823 508.175 288.652 507.564C289.481 506.953 290.05 506.061 290.352 504.889H291.484C291.16 506.363 290.486 507.508 289.467 508.315C288.441 509.123 287.148 509.53 285.588 509.53C284.239 509.53 283.044 509.221 282.011 508.603C280.978 507.985 280.184 507.107 279.629 505.977C279.074 504.846 278.793 503.554 278.793 502.094C278.793 500.634 279.074 499.356 279.629 498.225C280.184 497.095 280.978 496.217 282.011 495.592V495.578Z"
        fill="currentColor" />
    <path
        d="M309.845 508.561C308.805 509.193 307.624 509.509 306.296 509.509C304.968 509.509 303.787 509.193 302.754 508.561C301.721 507.929 300.906 507.044 300.33 505.907C299.754 504.769 299.466 503.491 299.466 502.073C299.466 500.655 299.754 499.37 300.33 498.239C300.906 497.102 301.714 496.217 302.754 495.585C303.794 494.953 304.975 494.637 306.296 494.637C307.617 494.637 308.805 494.953 309.845 495.585C310.885 496.217 311.693 497.102 312.269 498.239C312.845 499.377 313.14 500.655 313.14 502.073C313.14 503.491 312.852 504.769 312.269 505.907C311.693 507.044 310.885 507.929 309.845 508.561ZM303.359 507.648C304.216 508.189 305.193 508.463 306.296 508.463C307.399 508.463 308.383 508.189 309.247 507.648C310.112 507.107 310.786 506.349 311.264 505.38C311.742 504.411 311.988 503.309 311.988 502.066C311.988 500.823 311.749 499.721 311.264 498.752C310.786 497.783 310.112 497.032 309.247 496.484C308.383 495.943 307.399 495.669 306.296 495.669C305.193 495.669 304.216 495.943 303.359 496.484C302.501 497.025 301.834 497.783 301.349 498.752C300.871 499.721 300.632 500.823 300.632 502.066C300.632 503.309 300.871 504.411 301.349 505.38C301.827 506.349 302.501 507.107 303.359 507.648Z"
        fill="currentColor" />
    <path
        d="M325.783 494.764H327.118L332.76 509.389H331.545L329.788 504.917H323.056L321.299 509.389H320.126L325.776 494.764H325.783ZM329.465 503.878L326.436 495.999L323.408 503.878H329.472H329.465Z"
        fill="currentColor" />
    <path
        d="M342.963 495.578C343.996 494.953 345.184 494.637 346.54 494.637C348.086 494.637 349.386 495.044 350.426 495.852C351.473 496.659 352.147 497.797 352.457 499.257H351.325C351.016 498.113 350.44 497.235 349.59 496.617C348.739 495.999 347.699 495.69 346.477 495.69C345.359 495.69 344.383 495.964 343.547 496.505C342.71 497.046 342.064 497.804 341.6 498.773C341.136 499.742 340.911 500.844 340.911 502.087C340.911 503.33 341.143 504.432 341.6 505.401C342.057 506.37 342.71 507.128 343.547 507.669C344.383 508.21 345.359 508.484 346.477 508.484C347.728 508.484 348.775 508.175 349.604 507.564C350.433 506.953 351.002 506.061 351.311 504.889H352.443C352.119 506.363 351.452 507.508 350.426 508.315C349.4 509.123 348.107 509.53 346.547 509.53C345.198 509.53 344.003 509.221 342.97 508.603C341.937 507.985 341.143 507.107 340.588 505.977C340.026 504.846 339.752 503.554 339.752 502.094C339.752 500.634 340.033 499.356 340.588 498.225C341.143 497.095 341.937 496.217 342.97 495.592L342.963 495.578Z"
        fill="currentColor" />
    <path
        d="M362.336 494.743V501.406H370.804V494.743H371.935V509.389H370.804V502.452H362.336V509.389H361.205V494.743H362.336Z"
        fill="currentColor" />
    <path d="M401.828 494.764V495.81H394.26V501.596H400.577V502.642H394.26V509.389H393.129V494.764H401.828Z"
        fill="currentColor" />
    <path d="M411.215 494.764V509.389H410.084V494.764H411.215Z" fill="currentColor" />
    <path
        d="M420.492 494.764H421.56L430.217 507.325V494.764H431.328V509.389H430.26L421.602 496.807V509.389H420.492V494.764Z"
        fill="currentColor" />
    <path
        d="M445.1 494.764H446.442L452.085 509.389H450.869L449.112 504.917H442.38L440.624 509.389H439.45L445.093 494.764H445.1ZM448.782 503.878L445.753 495.999L442.718 503.878H448.782Z"
        fill="currentColor" />
    <path
        d="M460.207 494.764H461.275L469.932 507.325V494.764H471.043V509.389H469.975L461.317 496.807V509.389H460.207V494.764Z"
        fill="currentColor" />
    <path
        d="M483.01 495.578C484.043 494.953 485.238 494.637 486.587 494.637C488.133 494.637 489.433 495.044 490.473 495.852C491.52 496.659 492.194 497.797 492.504 499.257H491.372C491.07 498.113 490.487 497.235 489.637 496.617C488.786 495.999 487.746 495.69 486.524 495.69C485.406 495.69 484.43 495.964 483.593 496.505C482.757 497.046 482.111 497.804 481.647 498.773C481.183 499.742 480.958 500.844 480.958 502.087C480.958 503.33 481.19 504.432 481.647 505.401C482.104 506.37 482.757 507.128 483.593 507.669C484.43 508.21 485.406 508.484 486.524 508.484C487.774 508.484 488.821 508.175 489.651 507.564C490.48 506.953 491.049 506.061 491.358 504.889H492.489C492.166 506.363 491.492 507.508 490.473 508.315C489.447 509.123 488.154 509.53 486.594 509.53C485.245 509.53 484.05 509.221 483.017 508.603C481.984 507.985 481.19 507.107 480.635 505.977C480.073 504.846 479.799 503.554 479.799 502.094C479.799 500.634 480.073 499.356 480.635 498.225C481.19 497.095 481.984 496.217 483.017 495.592L483.01 495.578Z"
        fill="currentColor" />
    <path d="M502.39 494.764V509.389H501.259V494.764H502.39Z" fill="currentColor" />
    <path
        d="M520.689 494.764V495.81H512.805V501.413H519.41V502.459H512.805V508.35H520.963V509.396H511.681V494.771H520.696L520.689 494.764Z"
        fill="currentColor" />
    <path
        d="M538.123 495.922C538.959 496.694 539.381 497.727 539.381 499.026C539.381 500.1 539.071 500.999 538.446 501.722C537.828 502.445 536.991 502.901 535.951 503.084L539.423 509.396H538.151L534.827 503.295H530.499V509.396H529.367V494.771H534.785C536.176 494.771 537.294 495.157 538.13 495.929L538.123 495.922ZM534.694 502.241C535.769 502.241 536.626 501.946 537.265 501.364C537.905 500.781 538.228 500.002 538.228 499.026C538.228 498.05 537.912 497.27 537.279 496.687C536.647 496.105 535.79 495.81 534.722 495.81H530.499V502.248H534.701L534.694 502.241Z"
        fill="currentColor" />
    <path
        d="M557.713 508.561C556.673 509.193 555.492 509.509 554.171 509.509C552.85 509.509 551.663 509.193 550.623 508.561C549.583 507.929 548.775 507.044 548.198 505.907C547.622 504.769 547.327 503.491 547.327 502.073C547.327 500.655 547.615 499.37 548.198 498.239C548.775 497.102 549.583 496.217 550.623 495.585C551.663 494.953 552.843 494.637 554.171 494.637C555.499 494.637 556.68 494.953 557.713 495.585C558.753 496.217 559.561 497.102 560.137 498.239C560.713 499.377 561.002 500.655 561.002 502.073C561.002 503.491 560.713 504.769 560.137 505.907C559.561 507.044 558.753 507.929 557.713 508.561ZM551.234 507.648C552.091 508.189 553.068 508.463 554.171 508.463C555.275 508.463 556.251 508.189 557.123 507.648C557.987 507.107 558.662 506.349 559.139 505.38C559.617 504.411 559.863 503.309 559.863 502.066C559.863 500.823 559.624 499.721 559.139 498.752C558.662 497.783 557.987 497.032 557.123 496.484C556.258 495.943 555.275 495.669 554.171 495.669C553.068 495.669 552.091 495.943 551.234 496.484C550.377 497.025 549.709 497.783 549.224 498.752C548.747 499.721 548.501 500.823 548.501 502.066C548.501 503.309 548.74 504.411 549.224 505.38C549.702 506.349 550.37 507.107 551.234 507.648Z"
        fill="currentColor" />
</svg>