<svg width="493" height="326" viewBox="0 0 493 326" fill="none" xmlns="http://www.w3.org/2000/svg">
    <path
        d="M355.662 255.163L257.445 52.6043C247.814 32.3497 248.891 11.1752 263.867 4.26953V0.588516H159.022V4.26953C182.021 13.0162 190.585 34.6463 205.028 65.0319L330.193 325.101H335.539L359.914 266.506L355.654 255.163H355.662Z"
        fill="currentColor" />
    <path
        d="M430.227 0.588516V4.26953C437.534 11.2964 444.816 24.8595 442.974 40.658L444.412 41.8021C446.331 43.3417 448.853 43.9174 451.254 43.376L454.982 42.5333C465.414 24.3598 477.429 10.9865 492.285 4.26953V0.588516H430.235H430.227Z"
        fill="currentColor" />
    <path
        d="M197.169 255.163L98.9615 52.6043C89.3303 32.3497 90.4058 11.1752 105.382 4.26953V0.588516H0.538727V4.26953C23.5371 13.0162 32.1002 34.6463 46.544 65.0319L171.71 325.101H177.054L201.43 266.506L197.169 255.163Z"
        fill="currentColor" />
</svg>